<?xml version="1.0" encoding="UTF-8" standalone="no"?>
<svg
   width="388.76895"
   zoomAndPan="magnify"
   viewBox="0 0 291.57671 186.9781"
   height="249.30414"
   preserveAspectRatio="xMidYMid"
   version="1.0"
   id="svg1351"
   xmlns="http://www.w3.org/2000/svg"
   xmlns:svg="http://www.w3.org/2000/svg">
  <defs
     id="defs1207">
    <clipPath
       id="0451361a4c">
      <path
         d="m 96,88 h 189 v 90 H 96 Z m 0,0"
         clip-rule="nonzero"
         id="path1198" />
    </clipPath>
    <clipPath
       id="7e32c7a8d5">
      <path
         d="M 79.746094,144.65625 224.26172,56.082031 292.45703,167.34766 147.9375,255.92187 Z m 0,0"
         clip-rule="nonzero"
         id="path1201" />
    </clipPath>
    <clipPath
       id="5b783fe3fc">
      <path
         d="M 79.746094,144.65625 224.26172,56.082031 292.45703,167.34766 147.9375,255.92187 Z m 0,0"
         clip-rule="nonzero"
         id="path1204" />
    </clipPath>
  </defs>
  <g
     clip-path="url(#0451361a4c)"
     id="g1215"
     transform="translate(-43.543617,-88.832849)">
    <g
       clip-path="url(#7e32c7a8d5)"
       id="g1213">
      <g
         clip-path="url(#5b783fe3fc)"
         id="g1211">
        <path
           fill="#ffb80b"
           d="m 268.90625,133.17187 c -3.00781,-3.22656 -7.69531,1.79297 -4.69141,5.01172 5.26172,5.64063 9.33203,12.3125 11.75,19.64844 0.74219,2.26563 1.71094,4.90625 1.83985,7.3125 0.21484,4.04297 -3.42188,4.57031 -6.47657,3.70703 -8.76562,-2.47656 -17.91015,-3.99609 -27.02734,-4.91015 0.42188,-0.66016 0.82813,-1.33204 1.21094,-2.00782 2.44922,-4.32031 4.26953,-9.01172 5.78125,-13.73437 2.5039,-7.82422 4.11328,-15.95703 5.09375,-24.11328 0.21094,-1.76172 0.91406,-4.2461 -0.0625,-5.91406 -0.72266,-1.23829 -2.35547,-2.07422 -3.50391,-2.89454 -1.4414,-1.02343 -2.91015,-2 -4.42578,-2.91015 -2.54297,-1.53125 -5.1875,-2.88281 -7.91016,-4.0625 -5.57031,-2.41016 -11.61328,-4.38281 -17.71093,-5.20703 -0.3086,-1.58985 -1.41407,-2.73438 -2.70313,-4.007816 -3.32031,-3.289063 -7.53125,-5.570313 -11.88281,-7.167969 -13.30078,-4.902344 -31.02344,-4.1875 -43.09375,3.714844 -2.48047,1.621093 -5.61328,3.878906 -7.05078,6.613281 -0.21094,0.40234 -0.32813,0.80469 -0.38281,1.21094 -5.46875,0.80469 -10.91407,2.53906 -15.90625,4.67578 -2.82422,1.20312 -5.58594,2.53516 -8.23829,4.07812 -2.73437,1.58985 -6.69921,3.60547 -8.73437,6.08985 -1.35937,1.66015 -0.8125,3.63672 -0.5625,5.5625 1.01563,7.8164 2.55078,15.60547 4.88281,23.14062 1.83985,5.94531 4.20313,12.1875 7.69922,17.5586 -3.27734,0.40625 -6.54297,0.88281 -9.79687,1.41015 -3.97657,0.65235 -7.9375,1.41797 -11.85547,2.35938 -1.91797,0.46093 -3.8125,0.98437 -5.71094,1.52734 -1.41797,0.40234 -2.61328,0.75391 -3.99609,0.0352 -4.16407,-2.16797 -0.83594,-9.79297 0.3125,-13 2.30859,-6.47657 5.98828,-12.38282 10.54687,-17.5 2.9336,-3.28516 -2.0625,-7.9961 -5.01172,-4.6875 -5.38672,6.04297 -9.50781,12.95312 -12.207029,20.58593 -2.066406,5.82813 -4.535156,13.53516 0.410157,18.59766 2.468752,2.53125 6.000002,3.69531 9.484372,3.14063 4.64844,-0.7461 9.23047,-2.44922 13.8711,-3.36719 6.30859,-1.25 12.71093,-2.20313 19.12109,-2.78516 0.23047,0.21875 0.45312,0.44141 0.6875,0.65625 2.86328,2.58203 7.03906,1.67188 10.63672,1.41797 5.58984,-0.39844 11.3125,-1.08984 16.67187,-2.81641 0.17578,0.10157 0.34375,0.20313 0.52344,0.30079 5.66406,3.03515 12.30078,4.16406 18.65234,4.37109 7.08985,0.23437 14.41016,-0.85938 20.77735,-4.10156 0.48047,-0.24219 0.96484,-0.5 1.43359,-0.78516 4.95703,1.53516 10.17969,2.16016 15.33985,2.53125 2.83984,0.20703 6.76953,1.00391 9.58593,0.15625 1.12891,-0.33594 2.1875,-1.25 3.1211,-2.25 4.5,0.36719 8.98437,0.9375 13.44531,1.62891 4.35937,0.67187 8.70703,1.48437 13,2.51953 4.41406,1.0664 8.55469,2.82422 12.9375,0.60547 7.49609,-3.78907 6.07812,-11.92578 3.99609,-18.52735 -2.78125,-8.79687 -7.59375,-16.6914 -13.87109,-23.41797 z m -121.70703,33.19922 c -0.3711,-0.34765 -0.73438,-0.69922 -1.08594,-1.05859 -0.21484,-0.375 -0.5,-0.69922 -0.86719,-0.94531 -6.04687,-6.83985 -9.01562,-16.49219 -11.18359,-25.09375 -1.41406,-5.59375 -2.55469,-11.32422 -3.17969,-17.07422 7.98047,-5.89063 18.08203,-10.62109 27.60938,-11.96094 2.39843,15.91406 4.79687,31.82813 7.19531,47.73828 0.30469,2.00391 0.60547,4.01172 0.91016,6.01953 -6.23047,1.79297 -12.9375,2.34375 -19.39844,2.375 z M 183.875,167.5 c -2.90234,-0.44922 -5.83984,-1.125 -8.53125,-2.32422 -0.61719,-0.27734 -1.22656,-0.58203 -1.82031,-0.91016 -2.16407,-14.35156 -4.32813,-28.69921 -6.49219,-43.05078 -0.58984,-3.89453 -1.17578,-7.79296 -1.76563,-11.6914 -0.1875,-1.24219 -0.37109,-2.48828 -0.5625,-3.73047 -0.0273,-0.18359 -0.0352,-0.54297 -0.0586,-0.89063 0.99219,-1.07812 1.91016,-1.92578 3.01172,-2.71875 5.50391,-3.953121 12.26953,-5.695309 18.95703,-6.136715 8.14844,-0.535156 16.78125,0.386719 23.99219,4.480465 1.78906,1.01563 3.42578,2.21875 4.88281,3.67579 0.082,0.0859 0.25781,0.2539 0.44141,0.4375 -2.46875,17.66406 -4.9336,35.32421 -7.40235,52.98828 -0.29687,2.14453 -0.59765,4.28906 -0.89843,6.43359 -0.42188,0.28516 -0.84766,0.57031 -1.29688,0.79687 -6.69922,3.375 -15.17187,3.76954 -22.45703,2.64063 z m 36.73437,-2.55078 c -1.82421,-0.27344 -3.64062,-0.60938 -5.42968,-1.05469 -0.20313,-0.0508 -0.40235,-0.10937 -0.60547,-0.17187 1.90625,-13.64844 3.8125,-27.28907 5.71875,-40.9375 0.59765,-4.27344 1.22656,-8.54688 1.8164,-12.82032 2.34375,0.375 4.66407,0.89063 6.94532,1.52344 7.45703,2.0625 14.53906,5.46094 20.76562,10.05078 0,0.0156 -0.004,0.0352 -0.004,0.0547 -0.004,0.0547 -0.0156,0.125 -0.0273,0.23828 -0.043,0.33203 -0.0781,0.66406 -0.11719,0.9961 -0.0977,0.79296 -0.20312,1.58203 -0.3125,2.37109 -0.64062,4.5625 -1.48046,9.09765 -2.5625,13.57031 -2.0664,8.57813 -4.92578,18.10156 -10.80859,25.00391 -0.46094,0.28125 -0.80859,0.68359 -1.03516,1.16015 -0.30859,0.32813 -0.625,0.64453 -0.95312,0.95703 -4.46875,0.0156 -8.98438,-0.27734 -13.39063,-0.9414 z m 0,0"
           fill-opacity="1"
           fill-rule="nonzero"
           id="path1209" />
      </g>
    </g>
  </g>
  <g
     fill="#927137"
     fill-opacity="1"
     id="g1223"
     transform="translate(-43.543617,-88.832849)">
    <g
       transform="translate(38.731118,226.19801)"
       id="g1221">
      <g
         id="g1219">
        <path
           d="m 20.921875,-28.671875 c 4.03125,0 7.300781,1.351563 9.8125,4.046875 2.507813,2.6875 3.765625,6.1875 3.765625,10.5 0,4.28125 -1.230469,7.746094 -3.6875,10.390625 -2.460938,2.636719 -5.71875,3.953125 -9.78125,3.953125 -4.574219,0 -7.929688,-1.710938 -10.0625,-5.140625 V 0 H 4.8125 v -39.703125 h 6.15625 v 16.15625 c 2.132812,-3.414063 5.453125,-5.125 9.953125,-5.125 z M 13.40625,-7.625 c 1.625,1.730469 3.703125,2.59375 6.234375,2.59375 2.53125,0 4.601563,-0.863281 6.21875,-2.59375 1.625,-1.726562 2.4375,-3.96875 2.4375,-6.71875 0,-2.664062 -0.8125,-4.863281 -2.4375,-6.59375 -1.617187,-1.738281 -3.6875,-2.609375 -6.21875,-2.609375 -2.53125,0 -4.609375,0.871094 -6.234375,2.609375 -1.625,1.730469 -2.4375,3.929688 -2.4375,6.59375 0,2.75 0.8125,4.992188 2.4375,6.71875 z m 0,0"
           id="path1217" />
      </g>
    </g>
  </g>
  <g
     fill="#927137"
     fill-opacity="1"
     id="g1231"
     transform="translate(-43.543617,-88.832849)">
    <g
       transform="translate(75.110322,226.19801)"
       id="g1229">
      <g
         id="g1227">
        <path
           d="m 21.609375,0 v -3.484375 c -2.03125,2.5 -5.167969,3.75 -9.40625,3.75 -3.03125,0 -5.460937,-0.828125 -7.28125,-2.484375 C 3.097656,-3.875 2.1875,-5.988281 2.1875,-8.5625 c 0,-2.601562 0.941406,-4.671875 2.828125,-6.203125 1.894531,-1.53125 4.539063,-2.316406 7.9375,-2.359375 H 21.5625 v -0.84375 c 0,-1.820312 -0.585938,-3.234375 -1.75,-4.234375 -1.15625,-1 -2.839844,-1.5 -5.046875,-1.5 -2.75,0 -5.554687,0.964844 -8.40625,2.890625 l -2.5,-4.28125 c 2.164063,-1.28125 4.113281,-2.195312 5.84375,-2.75 1.738281,-0.550781 3.875,-0.828125 6.40625,-0.828125 3.632813,0 6.445313,0.886719 8.4375,2.65625 2,1.761719 3.019531,4.210937 3.0625,7.34375 L 27.65625,0 Z m -8.125,-4.59375 c 2.175781,0 4.019531,-0.507812 5.53125,-1.53125 1.519531,-1.019531 2.367187,-2.3125 2.546875,-3.875 v -2.625 h -7.703125 c -2.03125,0 -3.523437,0.296875 -4.46875,0.890625 -0.949219,0.585937 -1.421875,1.554687 -1.421875,2.90625 0,1.28125 0.488281,2.308594 1.46875,3.078125 0.976562,0.773438 2.328125,1.15625 4.046875,1.15625 z m 0,0"
           id="path1225" />
      </g>
    </g>
  </g>
  <g
     fill="#927137"
     fill-opacity="1"
     id="g1239"
     transform="translate(-43.543617,-88.832849)">
    <g
       transform="translate(106.46063,226.19801)"
       id="g1237">
      <g
         id="g1235">
        <path
           d="m 15.78125,-13.046875 -4.8125,5.078125 V 0 H 4.8125 v -39.703125 h 6.15625 v 23.96875 L 23.546875,-28.46875 h 7.0625 L 20.0625,-17.4375 31.40625,0 H 24.125 Z m 0,0"
           id="path1233" />
      </g>
    </g>
  </g>
  <g
     fill="#927137"
     fill-opacity="1"
     id="g1247"
     transform="translate(-43.543617,-88.832849)">
    <g
       transform="translate(138.29242,226.19801)"
       id="g1245">
      <g
         id="g1243">
        <path
           d="m 16.265625,-28.671875 c 4.882813,0 8.421875,1.476563 10.609375,4.421875 2.195312,2.9375 3.097656,7.0625 2.703125,12.375 h -21.5 c 0.5,2.210938 1.53125,3.949219 3.09375,5.21875 1.570313,1.261719 3.484375,1.890625 5.734375,1.890625 3.207031,0 5.882812,-1.101563 8.03125,-3.3125 l 3.25,3.484375 c -2.917969,3.210938 -6.839844,4.8125 -11.765625,4.8125 -4.386719,0 -7.90625,-1.328125 -10.5625,-3.984375 -2.65625,-2.65625 -3.984375,-6.125 -3.984375,-10.40625 0,-4.28125 1.332031,-7.757813 4,-10.4375 2.675781,-2.675781 6.140625,-4.03125 10.390625,-4.0625 z M 7.96875,-16.375 H 24.234375 C 24.128906,-18.65625 23.363281,-20.453125 21.9375,-21.765625 20.507812,-23.085938 18.632812,-23.75 16.3125,-23.75 c -2.242188,0 -4.105469,0.664062 -5.59375,1.984375 -1.480469,1.3125 -2.398438,3.109375 -2.75,5.390625 z m 0,0"
           id="path1241" />
      </g>
    </g>
  </g>
  <g
     fill="#927137"
     fill-opacity="1"
     id="g1261"
     transform="translate(-43.543617,-88.832849)">
    <g
       transform="translate(183.55243,226.19801)"
       id="g1259">
      <g
         id="g1257">
        <path
           d="m 13.046875,-28.734375 c 3.925781,0 7.242187,0.964844 9.953125,2.890625 l -2.234375,4.546875 c -2.71875,-1.675781 -5.449219,-2.515625 -8.1875,-2.515625 -2.78125,0 -4.171875,0.949219 -4.171875,2.84375 0,0.929688 0.515625,1.695312 1.546875,2.296875 1.03125,0.605469 2.285156,1.117187 3.765625,1.53125 1.476562,0.40625 2.957031,0.886719 4.4375,1.4375 1.488281,0.554687 2.75,1.453125 3.78125,2.703125 1.03125,1.25 1.546875,2.839844 1.546875,4.765625 0,2.742187 -1.042969,4.835937 -3.125,6.28125 -2.085937,1.449219 -4.679687,2.171875 -7.78125,2.171875 -2.148437,0 -4.246094,-0.347656 -6.296875,-1.046875 C 4.226562,-1.523438 2.507812,-2.5 1.125,-3.75 l 2.1875,-4.375 c 1.21875,1.0625 2.707031,1.917969 4.46875,2.5625 1.769531,0.648438 3.457031,0.96875 5.0625,0.96875 1.382812,0 2.503906,-0.25 3.359375,-0.75 0.863281,-0.5 1.296875,-1.269531 1.296875,-2.3125 0,-1.0625 -0.523438,-1.914062 -1.5625,-2.5625 -1.03125,-0.644531 -2.28125,-1.160156 -3.75,-1.546875 C 10.726562,-12.160156 9.269531,-12.625 7.8125,-13.15625 6.351562,-13.695312 5.113281,-14.582031 4.09375,-15.8125 3.070312,-17.039062 2.5625,-18.597656 2.5625,-20.484375 c 0,-2.71875 1.003906,-4.769531 3.015625,-6.15625 2.019531,-1.394531 4.507813,-2.09375 7.46875,-2.09375 z m 0,0"
           id="path1255" />
      </g>
    </g>
  </g>
  <g
     fill="#927137"
     fill-opacity="1"
     id="g1269"
     transform="translate(-43.543617,-88.832849)">
    <g
       transform="translate(208.69688,226.19801)"
       id="g1267">
      <g
         id="g1265">
        <path
           d="m 19.09375,-6.53125 1.5625,4.71875 c -2.355469,1.386719 -4.695312,2.078125 -7.015625,2.078125 -2.3125,0 -4.21875,-0.691406 -5.71875,-2.078125 -1.5,-1.394531 -2.25,-3.46875 -2.25,-6.21875 V -22.796875 H 1.65625 v -4.59375 h 4.015625 v -7.8125 h 6.09375 v 7.8125 h 8.40625 v 4.59375 h -8.40625 V -9.15625 c 0,1.429688 0.25,2.429688 0.75,3 0.5,0.574219 1.265625,0.859375 2.296875,0.859375 1.144531,0 2.570312,-0.410156 4.28125,-1.234375 z m 0,0"
           id="path1263" />
      </g>
    </g>
  </g>
  <g
     fill="#927137"
     fill-opacity="1"
     id="g1277"
     transform="translate(-43.543617,-88.832849)">
    <g
       transform="translate(230.47091,226.19801)"
       id="g1275">
      <g
         id="g1273">
        <path
           d="m 10.703125,-28.46875 v 5.671875 c 1.957031,-3.914063 5.238281,-5.875 9.84375,-5.875 v 5.875 c -2.824219,-0.132813 -5.109375,0.527344 -6.859375,1.984375 -1.742188,1.460938 -2.734375,3.4375 -2.984375,5.9375 V 0 h -6.15625 v -28.46875 z m 0,0"
           id="path1271" />
      </g>
    </g>
  </g>
  <g
     fill="#927137"
     fill-opacity="1"
     id="g1285"
     transform="translate(-43.543617,-88.832849)">
    <g
       transform="translate(251.54944,226.19801)"
       id="g1283">
      <g
         id="g1281">
        <path
           d="m 16.265625,-28.671875 c 4.882813,0 8.421875,1.476563 10.609375,4.421875 2.195312,2.9375 3.097656,7.0625 2.703125,12.375 h -21.5 c 0.5,2.210938 1.53125,3.949219 3.09375,5.21875 1.570313,1.261719 3.484375,1.890625 5.734375,1.890625 3.207031,0 5.882812,-1.101563 8.03125,-3.3125 l 3.25,3.484375 c -2.917969,3.210938 -6.839844,4.8125 -11.765625,4.8125 -4.386719,0 -7.90625,-1.328125 -10.5625,-3.984375 -2.65625,-2.65625 -3.984375,-6.125 -3.984375,-10.40625 0,-4.28125 1.332031,-7.757813 4,-10.4375 2.675781,-2.675781 6.140625,-4.03125 10.390625,-4.0625 z M 7.96875,-16.375 H 24.234375 C 24.128906,-18.65625 23.363281,-20.453125 21.9375,-21.765625 20.507812,-23.085938 18.632812,-23.75 16.3125,-23.75 c -2.242188,0 -4.105469,0.664062 -5.59375,1.984375 -1.480469,1.3125 -2.398438,3.109375 -2.75,5.390625 z m 0,0"
           id="path1279" />
      </g>
    </g>
  </g>
  <g
     fill="#927137"
     fill-opacity="1"
     id="g1293"
     transform="translate(-43.543617,-88.832849)">
    <g
       transform="translate(283.00677,226.19801)"
       id="g1291">
      <g
         id="g1289">
        <path
           d="m 16.265625,-28.671875 c 4.882813,0 8.421875,1.476563 10.609375,4.421875 2.195312,2.9375 3.097656,7.0625 2.703125,12.375 h -21.5 c 0.5,2.210938 1.53125,3.949219 3.09375,5.21875 1.570313,1.261719 3.484375,1.890625 5.734375,1.890625 3.207031,0 5.882812,-1.101563 8.03125,-3.3125 l 3.25,3.484375 c -2.917969,3.210938 -6.839844,4.8125 -11.765625,4.8125 -4.386719,0 -7.90625,-1.328125 -10.5625,-3.984375 -2.65625,-2.65625 -3.984375,-6.125 -3.984375,-10.40625 0,-4.28125 1.332031,-7.757813 4,-10.4375 2.675781,-2.675781 6.140625,-4.03125 10.390625,-4.0625 z M 7.96875,-16.375 H 24.234375 C 24.128906,-18.65625 23.363281,-20.453125 21.9375,-21.765625 20.507812,-23.085938 18.632812,-23.75 16.3125,-23.75 c -2.242188,0 -4.105469,0.664062 -5.59375,1.984375 -1.480469,1.3125 -2.398438,3.109375 -2.75,5.390625 z m 0,0"
           id="path1287" />
      </g>
    </g>
  </g>
  <g
     fill="#927137"
     fill-opacity="1"
     id="g1301"
     transform="translate(-43.543617,-88.832849)">
    <g
       transform="translate(314.46409,226.19801)"
       id="g1299">
      <g
         id="g1297">
        <path
           d="m 19.09375,-6.53125 1.5625,4.71875 c -2.355469,1.386719 -4.695312,2.078125 -7.015625,2.078125 -2.3125,0 -4.21875,-0.691406 -5.71875,-2.078125 -1.5,-1.394531 -2.25,-3.46875 -2.25,-6.21875 V -22.796875 H 1.65625 v -4.59375 h 4.015625 v -7.8125 h 6.09375 v 7.8125 h 8.40625 v 4.59375 h -8.40625 V -9.15625 c 0,1.429688 0.25,2.429688 0.75,3 0.5,0.574219 1.265625,0.859375 2.296875,0.859375 1.144531,0 2.570312,-0.410156 4.28125,-1.234375 z m 0,0"
           id="path1295" />
      </g>
    </g>
  </g>
  <g
     fill="#edad1a"
     fill-opacity="1"
     id="g1309"
     transform="translate(-43.543617,-88.832849)">
    <g
       transform="translate(115.26243,268.89987)"
       id="g1307">
      <g
         id="g1305">
        <path
           d="M 15.578125,2.734375 C 12.722656,2.316406 10.757812,0.929688 9.6875,-1.421875 L 9.234375,-1.40625 8.84375,1.296875 3.234375,0.46875 7.84375,-30.890625 l 5.609375,0.828125 -1.71875,11.625 0.4375,0.125 c 0.925781,-0.945312 1.945313,-1.597656 3.0625,-1.953125 1.125,-0.351563 2.414063,-0.425781 3.875,-0.21875 1.8125,0.273437 3.332031,0.933594 4.5625,1.984375 1.226563,1.042969 2.09375,2.484375 2.59375,4.328125 0.5,1.84375 0.5625,4.058594 0.1875,6.640625 -0.375,2.542969 -1.085937,4.625 -2.125,6.25 -1.03125,1.613281 -2.304687,2.75 -3.8125,3.40625 -1.511719,0.664062 -3.15625,0.867188 -4.9375,0.609375 z m -1,-5.03125 c 1.65625,0.242187 2.992187,-0.125 4.015625,-1.09375 C 19.625,-4.367188 20.3125,-6.03125 20.65625,-8.375 21,-10.75 20.816406,-12.550781 20.109375,-13.78125 c -0.699219,-1.238281 -1.875,-1.976562 -3.53125,-2.21875 -1.585937,-0.226562 -2.921875,0.15625 -4.015625,1.15625 -1.09375,1 -1.808594,2.652344 -2.140625,4.953125 -0.335937,2.292969 -0.121094,4.074219 0.640625,5.34375 0.757812,1.273437 1.929688,2.023437 3.515625,2.25 z m 0,0"
           id="path1303" />
      </g>
    </g>
  </g>
  <g
     fill="#edad1a"
     fill-opacity="1"
     id="g1317"
     transform="translate(-43.543617,-88.832849)">
    <g
       transform="translate(143.44308,272.9014)"
       id="g1315">
      <g
         id="g1313">
        <path
           d="m 8.765625,0.9375 c -1.449219,-0.085938 -2.6875,-0.421875 -3.71875,-1.015625 -1.023437,-0.601563 -1.792969,-1.4375 -2.3125,-2.5 -0.523437,-1.0625 -0.742187,-2.3125 -0.65625,-3.75 C 2.148438,-7.671875 2.5,-8.78125 3.125,-9.65625 c 0.632812,-0.875 1.566406,-1.566406 2.796875,-2.078125 1.238281,-0.519531 2.832031,-0.878906 4.78125,-1.078125 1.363281,-0.144531 2.40625,-0.328125 3.125,-0.546875 0.71875,-0.21875 1.207031,-0.476563 1.46875,-0.78125 0.257813,-0.3125 0.40625,-0.722656 0.4375,-1.234375 0.03125,-0.71875 -0.195313,-1.285156 -0.671875,-1.703125 -0.46875,-0.414063 -1.292969,-0.65625 -2.46875,-0.71875 -1.25,-0.07031 -2.460938,0.140625 -3.625,0.640625 -1.167969,0.5 -2.195312,1.183594 -3.078125,2.046875 L 5.484375,-15.125 3.3125,-18.859375 c 1.207031,-1.207031 2.65625,-2.117187 4.34375,-2.734375 1.695312,-0.613281 3.523438,-0.863281 5.484375,-0.75 2.976563,0.167969 5.097656,0.921875 6.359375,2.265625 1.269531,1.34375 1.84375,3.183594 1.71875,5.515625 l -0.5625,9.8125 c -0.05469,1 0.367188,1.527344 1.265625,1.578125 0.332031,0.023437 0.671875,-0.019531 1.015625,-0.125 L 23.203125,-3.1875 23.40625,0.78125 C 23.070312,0.976562 22.617188,1.125 22.046875,1.21875 21.484375,1.320312 20.863281,1.351562 20.1875,1.3125 18.84375,1.238281 17.804688,0.914062 17.078125,0.34375 c -0.730469,-0.5625 -1.230469,-1.40625 -1.5,-2.53125 L 15.15625,-2.25 C 13.914062,0.0390625 11.785156,1.101562 8.765625,0.9375 Z m 2.0625,-4.15625 c 1.3125,0.074219 2.378906,-0.300781 3.203125,-1.125 0.832031,-0.832031 1.296875,-2.035156 1.390625,-3.609375 l 0.125,-2.296875 -0.375,-0.125 c -0.355469,0.273438 -0.8125,0.484375 -1.375,0.640625 -0.5625,0.148437 -1.371094,0.277344 -2.421875,0.390625 -1.242188,0.136719 -2.148438,0.445312 -2.71875,0.921875 -0.574219,0.46875 -0.886719,1.164063 -0.9375,2.078125 -0.054688,0.96875 0.191406,1.71875 0.734375,2.25 0.550781,0.53125 1.34375,0.824219 2.375,0.875 z m 0,0"
           id="path1311" />
      </g>
    </g>
  </g>
  <g
     fill="#edad1a"
     fill-opacity="1"
     id="g1325"
     transform="translate(-43.543617,-88.832849)">
    <g
       transform="translate(168.51192,274.24096)"
       id="g1323">
      <g
         id="g1321">
        <path
           d="m 3.265625,-0.078125 -0.796875,-31.6875 5.671875,-0.140625 0.4375,17.578125 0.5625,-0.01563 6.3125,-8.6875 5.765625,-0.140625 0.01563,0.46875 -7.4375,10.125 8.84375,11.484375 0.01563,0.515625 -5.984375,0.15625 L 9.265635,-9.76563 8.703125,-9.75 8.9375,-0.21875 Z m 0,0"
           id="path1319" />
      </g>
    </g>
  </g>
  <g
     fill="#edad1a"
     fill-opacity="1"
     id="g1333"
     transform="translate(-43.543617,-88.832849)">
    <g
       transform="translate(192.48322,273.62018)"
       id="g1331">
      <g
         id="g1329">
        <path
           d="M 21.15625,-12.390625 6.6875,-10.8125 c 0.375,1.9375 1.085938,3.304688 2.140625,4.09375 1.050781,0.78125 2.394531,1.085938 4.03125,0.90625 1.289063,-0.132812 2.3125,-0.488281 3.0625,-1.0625 0.75,-0.570312 1.3125,-1.375 1.6875,-2.40625 l 0.4375,-0.046875 4,2 c -0.554687,1.667969 -1.515625,3.070313 -2.890625,4.203125 -1.375,1.136719 -3.304688,1.839844 -5.78125,2.109375 -2.324219,0.25 -4.382812,0.027344 -6.171875,-0.671875 -1.78125,-0.695312 -3.230469,-1.867188 -4.34375,-3.515625 -1.105469,-1.644531 -1.792969,-3.726563 -2.0625,-6.25 -0.28125,-2.550781 -0.039063,-4.753906 0.734375,-6.609375 0.78125,-1.863281 1.945312,-3.316406 3.5,-4.359375 1.550781,-1.039063 3.351562,-1.671875 5.40625,-1.890625 3.175781,-0.34375 5.703125,0.234375 7.578125,1.734375 1.875,1.5 2.988281,3.882813 3.34375,7.140625 0.125,1.179688 0.179687,2.09375 0.171875,2.75 z m -5.28125,-3.125 c -0.242188,-1.695313 -0.773438,-2.894531 -1.59375,-3.59375 -0.824219,-0.707031 -1.949219,-0.984375 -3.375,-0.828125 -2.84375,0.3125 -4.34375,2.132812 -4.5,5.453125 z m 0,0"
           id="path1327" />
      </g>
    </g>
  </g>
  <g
     fill="#edad1a"
     fill-opacity="1"
     id="g1341"
     transform="translate(-43.543617,-88.832849)">
    <g
       transform="translate(218.03681,270.67234)"
       id="g1339">
      <g
         id="g1337">
        <path
           d="m 3.21875,-0.59375 -4.109375,-22.25 5.421875,-1 0.609375,3.3125 H 5.5625 c 0.3125,-1.34375 0.851562,-2.378906 1.625,-3.109375 0.769531,-0.738281 1.78125,-1.226563 3.03125,-1.46875 1.257812,-0.226563 2.253906,-0.1875 2.984375,0.125 L 13.15625,-20 12.75,-19.84375 c -0.386719,-0.0625 -0.757812,-0.09375 -1.109375,-0.09375 -0.34375,-0.0078 -0.761719,0.02734 -1.25,0.109375 -1.5625,0.292969 -2.65625,1.058594 -3.28125,2.296875 -0.617187,1.242188 -0.699219,3.074219 -0.25,5.5 L 8.78125,-1.625 Z m 0,0"
           id="path1335" />
      </g>
    </g>
  </g>
  <g
     fill="#edad1a"
     fill-opacity="1"
     id="g1349"
     transform="translate(-43.543617,-88.832849)">
    <g
       transform="translate(236.61303,267.32334)"
       id="g1347">
      <g
         id="g1345">
        <path
           d="M 7.28125,8.015625 C 6.34375,8.253906 5.472656,8.398438 4.671875,8.453125 3.867188,8.515625 3.195312,8.492188 2.65625,8.390625 L 2.375,3.703125 2.6875,3.5 C 3.0625,3.582031 3.507812,3.609375 4.03125,3.578125 4.550781,3.554688 5.066406,3.476562 5.578125,3.34375 6.472656,3.113281 7.179688,2.804688 7.703125,2.421875 8.234375,2.035156 8.632812,1.519531 8.90625,0.875 c 0.269531,-0.636719 0.4375,-1.472656 0.5,-2.515625 l -14.65625,-20.375 5.75,-1.5 9.421875,13.78125 0.46875,-0.125 1.3125,-16.59375 5.59375,-1.46875 -2.703125,25.5625 c -0.210938,2.0625 -0.585938,3.773437 -1.125,5.140625 -0.53125,1.363281 -1.296875,2.472656 -2.296875,3.328125 -1,0.851563 -2.296875,1.488281 -3.890625,1.90625 z m 0,0"
           id="path1343" />
      </g>
    </g>
  </g>
</svg>
