<?xml version="1.0" encoding="UTF-8" standalone="no"?>
<svg
   width="388.76895"
   zoomAndPan="magnify"
   viewBox="0 0 291.57671 147.96647"
   height="197.28864"
   preserveAspectRatio="xMidYMid"
   version="1.0"
   id="svg109"
   sodipodi:docname="White and Gold Minimalist Restaurant Simple Logo .svg"
   inkscape:export-filename="logo .svg"
   inkscape:export-xdpi="96"
   inkscape:export-ydpi="96"
   xmlns:inkscape="http://www.inkscape.org/namespaces/inkscape"
   xmlns:sodipodi="http://sodipodi.sourceforge.net/DTD/sodipodi-0.dtd"
   xmlns="http://www.w3.org/2000/svg"
   xmlns:svg="http://www.w3.org/2000/svg">
  <sodipodi:namedview
     id="namedview111"
     pagecolor="#ffffff"
     bordercolor="#000000"
     borderopacity="0.25"
     inkscape:showpageshadow="2"
     inkscape:pageopacity="0.0"
     inkscape:pagecheckerboard="0"
     inkscape:deskcolor="#d1d1d1"
     showgrid="false" />
  <defs
     id="defs13">
    <clipPath
       id="3b14334f89">
      <path
         d="m 96,120 h 189 v 89 H 96 Z m 0,0"
         clip-rule="nonzero"
         id="path4" />
    </clipPath>
    <clipPath
       id="ca830d8c47">
      <path
         d="M 79.746094,175.97266 224.26172,87.402344 292.45703,198.66797 147.9375,287.23828 Z m 0,0"
         clip-rule="nonzero"
         id="path7" />
    </clipPath>
    <clipPath
       id="4c3051848a">
      <path
         d="M 79.746094,175.97266 224.26172,87.402344 292.45703,198.66797 147.9375,287.23828 Z m 0,0"
         clip-rule="nonzero"
         id="path10" />
    </clipPath>
  </defs>
  <g
     clip-path="url(#3b14334f89)"
     id="g21"
     transform="translate(-43.543617,-120.15121)">
    <g
       clip-path="url(#ca830d8c47)"
       id="g19">
      <g
         clip-path="url(#4c3051848a)"
         id="g17">
        <path
           fill="#ffb80b"
           d="m 268.90625,164.49219 c -3.00781,-3.22657 -7.69531,1.79297 -4.69141,5.01172 5.26172,5.64062 9.33203,12.30859 11.75,19.64843 0.74219,2.26563 1.71094,4.90235 1.83985,7.3125 0.21484,4.04297 -3.42188,4.57032 -6.47657,3.70703 -8.76562,-2.47656 -17.91015,-3.99609 -27.02734,-4.91015 0.42188,-0.66406 0.82813,-1.33203 1.21094,-2.00781 2.44922,-4.32422 4.26953,-9.01172 5.78125,-13.73438 2.5039,-7.82422 4.11328,-15.96094 5.09375,-24.11328 0.21094,-1.76172 0.91406,-4.25 -0.0625,-5.91406 -0.72266,-1.24219 -2.35547,-2.07422 -3.50391,-2.89453 -1.4414,-1.02344 -2.91015,-2 -4.42578,-2.91407 -2.54297,-1.52734 -5.1875,-2.88281 -7.91016,-4.05859 -5.57031,-2.41016 -11.61328,-4.38672 -17.71093,-5.20703 -0.3086,-1.59375 -1.41407,-2.73438 -2.70313,-4.01172 -3.32031,-3.28516 -7.53125,-5.56641 -11.88281,-7.16406 -13.30078,-4.90625 -31.02344,-4.1875 -43.09375,3.71094 -2.48047,1.62499 -5.61328,3.88281 -7.05078,6.61328 -0.21094,0.40625 -0.32813,0.80859 -0.38281,1.21484 -5.46875,0.80469 -10.91407,2.53906 -15.90625,4.67187 -2.82422,1.20313 -5.58594,2.53516 -8.23829,4.08204 -2.73437,1.58593 -6.69921,3.60546 -8.73437,6.08984 -1.35937,1.66016 -0.8125,3.63281 -0.5625,5.5625 1.01563,7.81641 2.55078,15.60156 4.88281,23.13672 1.83985,5.94922 4.20313,12.1914 7.69922,17.5625 -3.27734,0.40234 -6.54297,0.8789 -9.79687,1.41015 -3.97657,0.65235 -7.9375,1.41407 -11.85547,2.35547 -1.91797,0.46094 -3.8125,0.98828 -5.71094,1.52735 -1.41797,0.40625 -2.61328,0.75781 -3.99609,0.0352 -4.16407,-2.16406 -0.83594,-9.78906 0.3125,-13 2.30859,-6.47265 5.98828,-12.3789 10.54687,-17.49609 2.9336,-3.28906 -2.0625,-7.99609 -5.01172,-4.69141 -5.38672,6.04688 -9.50781,12.95703 -12.207029,20.58594 -2.066406,5.83203 -4.535156,13.53516 0.410157,18.60156 2.468752,2.52735 6.000002,3.69532 9.484372,3.13672 4.64844,-0.74219 9.23047,-2.44922 13.8711,-3.36719 6.30859,-1.25 12.71093,-2.19921 19.12109,-2.78515 0.23047,0.22265 0.45312,0.44531 0.6875,0.65625 2.86328,2.58594 7.03906,1.67578 10.63672,1.42187 5.58984,-0.39843 11.3125,-1.08984 16.67187,-2.82031 0.17578,0.10156 0.34375,0.20313 0.52344,0.30469 5.66406,3.03125 12.30078,4.16406 18.65234,4.37109 7.08985,0.23047 14.41016,-0.85937 20.77735,-4.10156 0.48047,-0.24609 0.96484,-0.50391 1.43359,-0.78516 4.95703,1.53516 10.17969,2.15625 15.33985,2.53125 2.83984,0.20703 6.76953,1.00391 9.58593,0.15625 1.12891,-0.33984 2.1875,-1.25 3.1211,-2.25 4.5,0.36719 8.98437,0.9375 13.44531,1.625 4.35937,0.67578 8.70703,1.48438 13,2.52344 4.41406,1.06641 8.55469,2.82422 12.9375,0.60547 7.49609,-3.78906 6.07812,-11.92578 3.99609,-18.52734 -2.78125,-8.79688 -7.59375,-16.69141 -13.87109,-23.41797 z M 147.19922,197.6875 c -0.3711,-0.34375 -0.73438,-0.69531 -1.08594,-1.05859 -0.21484,-0.3711 -0.5,-0.69922 -0.86719,-0.94141 -6.04687,-6.84375 -9.01562,-16.49609 -11.18359,-25.09375 -1.41406,-5.59766 -2.55469,-11.32422 -3.17969,-17.07813 7.98047,-5.89062 18.08203,-10.62109 27.60938,-11.95703 2.39843,15.91407 4.79687,31.82813 7.19531,47.73828 0.30469,2.00391 0.60547,4.00782 0.91016,6.01563 -6.23047,1.79297 -12.9375,2.34375 -19.39844,2.375 z m 36.67578,1.13281 c -2.90234,-0.44922 -5.83984,-1.125 -8.53125,-2.32812 -0.61719,-0.27344 -1.22656,-0.58203 -1.82031,-0.90625 -2.16407,-14.35157 -4.32813,-28.69922 -6.49219,-43.05078 -0.58984,-3.89844 -1.17578,-7.79688 -1.76563,-11.69141 -0.1875,-1.24219 -0.37109,-2.48828 -0.5625,-3.73047 -0.0273,-0.1875 -0.0352,-0.54297 -0.0586,-0.89453 0.99219,-1.07813 1.91016,-1.92188 3.01172,-2.71484 5.50391,-3.95313 12.26953,-5.69532 18.95703,-6.13672 8.14844,-0.53516 16.78125,0.38672 23.99219,4.48047 1.78906,1.01562 3.42578,2.21875 4.88281,3.67578 0.082,0.082 0.25781,0.2539 0.44141,0.4375 -2.46875,17.66406 -4.9336,35.32422 -7.40235,52.98828 -0.29687,2.14453 -0.59765,4.28515 -0.89843,6.43359 -0.42188,0.28125 -0.84766,0.56641 -1.29688,0.79688 -6.69922,3.375 -15.17187,3.76953 -22.45703,2.64062 z m 36.73437,-2.55469 c -1.82421,-0.26953 -3.64062,-0.60546 -5.42968,-1.05468 -0.20313,-0.0508 -0.40235,-0.10938 -0.60547,-0.16797 1.90625,-13.64844 3.8125,-27.28906 5.71875,-40.9375 0.59765,-4.27735 1.22656,-8.54688 1.8164,-12.82031 2.34375,0.37109 4.66407,0.88671 6.94532,1.52343 7.45703,2.0625 14.53906,5.45703 20.76562,10.04688 0,0.0195 -0.004,0.0391 -0.004,0.0547 -0.004,0.0547 -0.0156,0.1289 -0.0273,0.24218 -0.043,0.33203 -0.0781,0.66407 -0.11719,0.9961 -0.0977,0.79297 -0.20312,1.58203 -0.3125,2.37109 -0.64062,4.55859 -1.48046,9.09375 -2.5625,13.57031 -2.0664,8.57813 -4.92578,18.10157 -10.80859,25.00391 -0.46094,0.27734 -0.80859,0.68359 -1.03516,1.16016 -0.30859,0.32421 -0.625,0.64062 -0.95312,0.95312 -4.46875,0.0195 -8.98438,-0.27734 -13.39063,-0.94141 z m 0,0"
           fill-opacity="1"
           fill-rule="nonzero"
           id="path15" />
      </g>
    </g>
  </g>
  <g
     fill="#927137"
     fill-opacity="1"
     id="g29"
     transform="translate(-43.543617,-120.15121)">
    <g
       transform="translate(38.731118,267.85205)"
       id="g27">
      <g
         id="g25">
        <path
           d="m 20.921875,-28.671875 c 4.03125,0 7.300781,1.351563 9.8125,4.046875 2.507813,2.6875 3.765625,6.1875 3.765625,10.5 0,4.28125 -1.230469,7.746094 -3.6875,10.390625 -2.460938,2.636719 -5.71875,3.953125 -9.78125,3.953125 -4.574219,0 -7.929688,-1.710938 -10.0625,-5.140625 V 0 H 4.8125 v -39.703125 h 6.15625 v 16.15625 c 2.132812,-3.414063 5.453125,-5.125 9.953125,-5.125 z M 13.40625,-7.625 c 1.625,1.730469 3.703125,2.59375 6.234375,2.59375 2.53125,0 4.601563,-0.863281 6.21875,-2.59375 1.625,-1.726562 2.4375,-3.96875 2.4375,-6.71875 0,-2.664062 -0.8125,-4.863281 -2.4375,-6.59375 -1.617187,-1.738281 -3.6875,-2.609375 -6.21875,-2.609375 -2.53125,0 -4.609375,0.871094 -6.234375,2.609375 -1.625,1.730469 -2.4375,3.929688 -2.4375,6.59375 0,2.75 0.8125,4.992188 2.4375,6.71875 z m 0,0"
           id="path23" />
      </g>
    </g>
  </g>
  <g
     fill="#927137"
     fill-opacity="1"
     id="g37"
     transform="translate(-43.543617,-120.15121)">
    <g
       transform="translate(75.110322,267.85205)"
       id="g35">
      <g
         id="g33">
        <path
           d="m 21.609375,0 v -3.484375 c -2.03125,2.5 -5.167969,3.75 -9.40625,3.75 -3.03125,0 -5.460937,-0.828125 -7.28125,-2.484375 C 3.097656,-3.875 2.1875,-5.988281 2.1875,-8.5625 c 0,-2.601562 0.941406,-4.671875 2.828125,-6.203125 1.894531,-1.53125 4.539063,-2.316406 7.9375,-2.359375 H 21.5625 v -0.84375 c 0,-1.820312 -0.585938,-3.234375 -1.75,-4.234375 -1.15625,-1 -2.839844,-1.5 -5.046875,-1.5 -2.75,0 -5.554687,0.964844 -8.40625,2.890625 l -2.5,-4.28125 c 2.164063,-1.28125 4.113281,-2.195312 5.84375,-2.75 1.738281,-0.550781 3.875,-0.828125 6.40625,-0.828125 3.632813,0 6.445313,0.886719 8.4375,2.65625 2,1.761719 3.019531,4.210937 3.0625,7.34375 L 27.65625,0 Z m -8.125,-4.59375 c 2.175781,0 4.019531,-0.507812 5.53125,-1.53125 1.519531,-1.019531 2.367187,-2.3125 2.546875,-3.875 v -2.625 h -7.703125 c -2.03125,0 -3.523437,0.296875 -4.46875,0.890625 -0.949219,0.585937 -1.421875,1.554687 -1.421875,2.90625 0,1.28125 0.488281,2.308594 1.46875,3.078125 0.976562,0.773438 2.328125,1.15625 4.046875,1.15625 z m 0,0"
           id="path31" />
      </g>
    </g>
  </g>
  <g
     fill="#927137"
     fill-opacity="1"
     id="g45"
     transform="translate(-43.543617,-120.15121)">
    <g
       transform="translate(106.46063,267.85205)"
       id="g43">
      <g
         id="g41">
        <path
           d="m 15.78125,-13.046875 -4.8125,5.078125 V 0 H 4.8125 v -39.703125 h 6.15625 v 23.96875 L 23.546875,-28.46875 h 7.0625 L 20.0625,-17.4375 31.40625,0 H 24.125 Z m 0,0"
           id="path39" />
      </g>
    </g>
  </g>
  <g
     fill="#927137"
     fill-opacity="1"
     id="g53"
     transform="translate(-43.543617,-120.15121)">
    <g
       transform="translate(138.29242,267.85205)"
       id="g51">
      <g
         id="g49">
        <path
           d="m 16.265625,-28.671875 c 4.882813,0 8.421875,1.476563 10.609375,4.421875 2.195312,2.9375 3.097656,7.0625 2.703125,12.375 h -21.5 c 0.5,2.210938 1.53125,3.949219 3.09375,5.21875 1.570313,1.261719 3.484375,1.890625 5.734375,1.890625 3.207031,0 5.882812,-1.101563 8.03125,-3.3125 l 3.25,3.484375 c -2.917969,3.210938 -6.839844,4.8125 -11.765625,4.8125 -4.386719,0 -7.90625,-1.328125 -10.5625,-3.984375 -2.65625,-2.65625 -3.984375,-6.125 -3.984375,-10.40625 0,-4.28125 1.332031,-7.757813 4,-10.4375 2.675781,-2.675781 6.140625,-4.03125 10.390625,-4.0625 z M 7.96875,-16.375 H 24.234375 C 24.128906,-18.65625 23.363281,-20.453125 21.9375,-21.765625 20.507812,-23.085938 18.632812,-23.75 16.3125,-23.75 c -2.242188,0 -4.105469,0.664062 -5.59375,1.984375 -1.480469,1.3125 -2.398438,3.109375 -2.75,5.390625 z m 0,0"
           id="path47" />
      </g>
    </g>
  </g>
  <g
     fill="#927137"
     fill-opacity="1"
     id="g67"
     transform="translate(-43.543617,-120.15121)">
    <g
       transform="translate(183.55243,267.85205)"
       id="g65">
      <g
         id="g63">
        <path
           d="m 13.046875,-28.734375 c 3.925781,0 7.242187,0.964844 9.953125,2.890625 l -2.234375,4.546875 c -2.71875,-1.675781 -5.449219,-2.515625 -8.1875,-2.515625 -2.78125,0 -4.171875,0.949219 -4.171875,2.84375 0,0.929688 0.515625,1.695312 1.546875,2.296875 1.03125,0.605469 2.285156,1.117187 3.765625,1.53125 1.476562,0.40625 2.957031,0.886719 4.4375,1.4375 1.488281,0.554687 2.75,1.453125 3.78125,2.703125 1.03125,1.25 1.546875,2.839844 1.546875,4.765625 0,2.742187 -1.042969,4.835937 -3.125,6.28125 -2.085937,1.449219 -4.679687,2.171875 -7.78125,2.171875 -2.148437,0 -4.246094,-0.347656 -6.296875,-1.046875 C 4.226562,-1.523438 2.507812,-2.5 1.125,-3.75 l 2.1875,-4.375 c 1.21875,1.0625 2.707031,1.917969 4.46875,2.5625 1.769531,0.648438 3.457031,0.96875 5.0625,0.96875 1.382812,0 2.503906,-0.25 3.359375,-0.75 0.863281,-0.5 1.296875,-1.269531 1.296875,-2.3125 0,-1.0625 -0.523438,-1.914062 -1.5625,-2.5625 -1.03125,-0.644531 -2.28125,-1.160156 -3.75,-1.546875 C 10.726562,-12.160156 9.269531,-12.625 7.8125,-13.15625 6.351562,-13.695312 5.113281,-14.582031 4.09375,-15.8125 3.070312,-17.039062 2.5625,-18.597656 2.5625,-20.484375 c 0,-2.71875 1.003906,-4.769531 3.015625,-6.15625 2.019531,-1.394531 4.507813,-2.09375 7.46875,-2.09375 z m 0,0"
           id="path61" />
      </g>
    </g>
  </g>
  <g
     fill="#927137"
     fill-opacity="1"
     id="g75"
     transform="translate(-43.543617,-120.15121)">
    <g
       transform="translate(208.69688,267.85205)"
       id="g73">
      <g
         id="g71">
        <path
           d="m 19.09375,-6.53125 1.5625,4.71875 c -2.355469,1.386719 -4.695312,2.078125 -7.015625,2.078125 -2.3125,0 -4.21875,-0.691406 -5.71875,-2.078125 -1.5,-1.394531 -2.25,-3.46875 -2.25,-6.21875 V -22.796875 H 1.65625 v -4.59375 h 4.015625 v -7.8125 h 6.09375 v 7.8125 h 8.40625 v 4.59375 h -8.40625 V -9.15625 c 0,1.429688 0.25,2.429688 0.75,3 0.5,0.574219 1.265625,0.859375 2.296875,0.859375 1.144531,0 2.570312,-0.410156 4.28125,-1.234375 z m 0,0"
           id="path69" />
      </g>
    </g>
  </g>
  <g
     fill="#927137"
     fill-opacity="1"
     id="g83"
     transform="translate(-43.543617,-120.15121)">
    <g
       transform="translate(230.47091,267.85205)"
       id="g81">
      <g
         id="g79">
        <path
           d="m 10.703125,-28.46875 v 5.671875 c 1.957031,-3.914063 5.238281,-5.875 9.84375,-5.875 v 5.875 c -2.824219,-0.132813 -5.109375,0.527344 -6.859375,1.984375 -1.742188,1.460938 -2.734375,3.4375 -2.984375,5.9375 V 0 h -6.15625 v -28.46875 z m 0,0"
           id="path77" />
      </g>
    </g>
  </g>
  <g
     fill="#927137"
     fill-opacity="1"
     id="g91"
     transform="translate(-43.543617,-120.15121)">
    <g
       transform="translate(251.54944,267.85205)"
       id="g89">
      <g
         id="g87">
        <path
           d="m 16.265625,-28.671875 c 4.882813,0 8.421875,1.476563 10.609375,4.421875 2.195312,2.9375 3.097656,7.0625 2.703125,12.375 h -21.5 c 0.5,2.210938 1.53125,3.949219 3.09375,5.21875 1.570313,1.261719 3.484375,1.890625 5.734375,1.890625 3.207031,0 5.882812,-1.101563 8.03125,-3.3125 l 3.25,3.484375 c -2.917969,3.210938 -6.839844,4.8125 -11.765625,4.8125 -4.386719,0 -7.90625,-1.328125 -10.5625,-3.984375 -2.65625,-2.65625 -3.984375,-6.125 -3.984375,-10.40625 0,-4.28125 1.332031,-7.757813 4,-10.4375 2.675781,-2.675781 6.140625,-4.03125 10.390625,-4.0625 z M 7.96875,-16.375 H 24.234375 C 24.128906,-18.65625 23.363281,-20.453125 21.9375,-21.765625 20.507812,-23.085938 18.632812,-23.75 16.3125,-23.75 c -2.242188,0 -4.105469,0.664062 -5.59375,1.984375 -1.480469,1.3125 -2.398438,3.109375 -2.75,5.390625 z m 0,0"
           id="path85" />
      </g>
    </g>
  </g>
  <g
     fill="#927137"
     fill-opacity="1"
     id="g99"
     transform="translate(-43.543617,-120.15121)">
    <g
       transform="translate(283.00677,267.85205)"
       id="g97">
      <g
         id="g95">
        <path
           d="m 16.265625,-28.671875 c 4.882813,0 8.421875,1.476563 10.609375,4.421875 2.195312,2.9375 3.097656,7.0625 2.703125,12.375 h -21.5 c 0.5,2.210938 1.53125,3.949219 3.09375,5.21875 1.570313,1.261719 3.484375,1.890625 5.734375,1.890625 3.207031,0 5.882812,-1.101563 8.03125,-3.3125 l 3.25,3.484375 c -2.917969,3.210938 -6.839844,4.8125 -11.765625,4.8125 -4.386719,0 -7.90625,-1.328125 -10.5625,-3.984375 -2.65625,-2.65625 -3.984375,-6.125 -3.984375,-10.40625 0,-4.28125 1.332031,-7.757813 4,-10.4375 2.675781,-2.675781 6.140625,-4.03125 10.390625,-4.0625 z M 7.96875,-16.375 H 24.234375 C 24.128906,-18.65625 23.363281,-20.453125 21.9375,-21.765625 20.507812,-23.085938 18.632812,-23.75 16.3125,-23.75 c -2.242188,0 -4.105469,0.664062 -5.59375,1.984375 -1.480469,1.3125 -2.398438,3.109375 -2.75,5.390625 z m 0,0"
           id="path93" />
      </g>
    </g>
  </g>
  <g
     fill="#927137"
     fill-opacity="1"
     id="g107"
     transform="translate(-43.543617,-120.15121)">
    <g
       transform="translate(314.46409,267.85205)"
       id="g105">
      <g
         id="g103">
        <path
           d="m 19.09375,-6.53125 1.5625,4.71875 c -2.355469,1.386719 -4.695312,2.078125 -7.015625,2.078125 -2.3125,0 -4.21875,-0.691406 -5.71875,-2.078125 -1.5,-1.394531 -2.25,-3.46875 -2.25,-6.21875 V -22.796875 H 1.65625 v -4.59375 h 4.015625 v -7.8125 h 6.09375 v 7.8125 h 8.40625 v 4.59375 h -8.40625 V -9.15625 c 0,1.429688 0.25,2.429688 0.75,3 0.5,0.574219 1.265625,0.859375 2.296875,0.859375 1.144531,0 2.570312,-0.410156 4.28125,-1.234375 z m 0,0"
           id="path101" />
      </g>
    </g>
  </g>
</svg>
